<mxfile host="www.draw.io" modified="2020-03-10T03:06:24.194Z" agent="Mozilla/5.0 (Macintosh; Intel Mac OS X 10_15_3) AppleWebKit/605.1.15 (KHTML, like Gecko) Version/13.0.5 Safari/605.1.15" etag="nWBLa2XiDXhEREUIrvph" version="12.8.2" type="github">
  <diagram id="kLK64KmaPlqT34WZL2R0" name="Page-1">
    <mxGraphModel dx="684" dy="892" grid="1" gridSize="10" guides="1" tooltips="1" connect="1" arrows="1" fold="1" page="1" pageScale="1" pageWidth="850" pageHeight="1100" math="0" shadow="0">
      <root>
        <mxCell id="0" />
        <mxCell id="1" parent="0" />
        <mxCell id="sz2bEALduLYrKWiKKfTO-43" value="" style="edgeStyle=orthogonalEdgeStyle;rounded=0;orthogonalLoop=1;jettySize=auto;html=1;entryX=0.5;entryY=0;entryDx=0;entryDy=0;" parent="1" source="sz2bEALduLYrKWiKKfTO-3" target="sz2bEALduLYrKWiKKfTO-46" edge="1">
          <mxGeometry relative="1" as="geometry">
            <mxPoint x="420" y="110" as="targetPoint" />
            <Array as="points" />
          </mxGeometry>
        </mxCell>
        <mxCell id="sz2bEALduLYrKWiKKfTO-3" value="My App" style="rounded=1;whiteSpace=wrap;html=1;" parent="1" vertex="1">
          <mxGeometry x="360" y="40" width="120" height="40" as="geometry" />
        </mxCell>
        <mxCell id="sz2bEALduLYrKWiKKfTO-25" value="" style="edgeStyle=orthogonalEdgeStyle;rounded=0;orthogonalLoop=1;jettySize=auto;html=1;" parent="1" target="sz2bEALduLYrKWiKKfTO-24" edge="1">
          <mxGeometry relative="1" as="geometry">
            <mxPoint x="420" y="160" as="sourcePoint" />
            <Array as="points">
              <mxPoint x="420" y="180" />
              <mxPoint x="340" y="180" />
            </Array>
          </mxGeometry>
        </mxCell>
        <mxCell id="sz2bEALduLYrKWiKKfTO-24" value="My App Bar" style="rounded=1;whiteSpace=wrap;html=1;" parent="1" vertex="1">
          <mxGeometry x="280" y="200" width="120" height="40" as="geometry" />
        </mxCell>
        <mxCell id="sz2bEALduLYrKWiKKfTO-4" value="My Cart" style="rounded=1;whiteSpace=wrap;html=1;" parent="1" vertex="1">
          <mxGeometry x="520" y="120" width="120" height="40" as="geometry" />
        </mxCell>
        <mxCell id="sz2bEALduLYrKWiKKfTO-5" value="My List Item" style="rounded=1;whiteSpace=wrap;html=1;" parent="1" vertex="1">
          <mxGeometry x="440" y="320" width="120" height="40" as="geometry" />
        </mxCell>
        <mxCell id="sz2bEALduLYrKWiKKfTO-13" value="My List Item" style="rounded=1;whiteSpace=wrap;html=1;" parent="1" vertex="1">
          <mxGeometry x="440" y="200" width="120" height="40" as="geometry" />
        </mxCell>
        <mxCell id="sz2bEALduLYrKWiKKfTO-10" value="&lt;span style=&quot;white-space: normal&quot;&gt;My List Item&lt;/span&gt;" style="rounded=1;whiteSpace=wrap;html=1;" parent="1" vertex="1">
          <mxGeometry x="440" y="260" width="120" height="40" as="geometry" />
        </mxCell>
        <mxCell id="sz2bEALduLYrKWiKKfTO-6" value="My Login Screen" style="rounded=1;whiteSpace=wrap;html=1;" parent="1" vertex="1">
          <mxGeometry x="200" y="120" width="120" height="40" as="geometry" />
        </mxCell>
        <mxCell id="sz2bEALduLYrKWiKKfTO-8" value="My List Item" style="rounded=1;whiteSpace=wrap;html=1;" parent="1" vertex="1">
          <mxGeometry x="440" y="450" width="120" height="40" as="geometry" />
        </mxCell>
        <mxCell id="sz2bEALduLYrKWiKKfTO-17" value="My list Item" style="rounded=1;whiteSpace=wrap;html=1;" parent="1" vertex="1">
          <mxGeometry x="440" y="390" width="120" height="40" as="geometry" />
        </mxCell>
        <mxCell id="sz2bEALduLYrKWiKKfTO-21" style="edgeStyle=orthogonalEdgeStyle;rounded=0;orthogonalLoop=1;jettySize=auto;html=1;exitX=0.5;exitY=1;exitDx=0;exitDy=0;" parent="1" source="sz2bEALduLYrKWiKKfTO-13" target="sz2bEALduLYrKWiKKfTO-13" edge="1">
          <mxGeometry relative="1" as="geometry" />
        </mxCell>
        <mxCell id="sz2bEALduLYrKWiKKfTO-46" value="My Catalog" style="rounded=1;whiteSpace=wrap;html=1;" parent="1" vertex="1">
          <mxGeometry x="360" y="120" width="120" height="40" as="geometry" />
        </mxCell>
        <mxCell id="sz2bEALduLYrKWiKKfTO-47" style="edgeStyle=orthogonalEdgeStyle;rounded=0;orthogonalLoop=1;jettySize=auto;html=1;exitX=0.5;exitY=1;exitDx=0;exitDy=0;" parent="1" source="sz2bEALduLYrKWiKKfTO-46" target="sz2bEALduLYrKWiKKfTO-46" edge="1">
          <mxGeometry relative="1" as="geometry" />
        </mxCell>
        <mxCell id="sz2bEALduLYrKWiKKfTO-50" value="" style="edgeStyle=orthogonalEdgeStyle;rounded=0;orthogonalLoop=1;jettySize=auto;html=1;" parent="1" edge="1">
          <mxGeometry relative="1" as="geometry">
            <mxPoint x="425" y="160" as="sourcePoint" />
            <mxPoint x="505" y="200" as="targetPoint" />
            <Array as="points">
              <mxPoint x="420" y="160" />
              <mxPoint x="420" y="180" />
              <mxPoint x="505" y="180" />
            </Array>
          </mxGeometry>
        </mxCell>
        <mxCell id="sz2bEALduLYrKWiKKfTO-51" value="" style="edgeStyle=orthogonalEdgeStyle;rounded=0;orthogonalLoop=1;jettySize=auto;html=1;" parent="1" edge="1">
          <mxGeometry relative="1" as="geometry">
            <mxPoint x="410" y="80" as="sourcePoint" />
            <mxPoint x="270" y="120" as="targetPoint" />
            <Array as="points">
              <mxPoint x="390" y="80" />
              <mxPoint x="390" y="100" />
              <mxPoint x="270" y="100" />
            </Array>
          </mxGeometry>
        </mxCell>
        <mxCell id="sz2bEALduLYrKWiKKfTO-52" value="" style="edgeStyle=orthogonalEdgeStyle;rounded=0;orthogonalLoop=1;jettySize=auto;html=1;" parent="1" edge="1">
          <mxGeometry relative="1" as="geometry">
            <mxPoint x="480" y="80" as="sourcePoint" />
            <mxPoint x="570" y="120" as="targetPoint" />
            <Array as="points">
              <mxPoint x="450" y="80" />
              <mxPoint x="450" y="100" />
              <mxPoint x="570" y="100" />
              <mxPoint x="570" y="120" />
            </Array>
          </mxGeometry>
        </mxCell>
      </root>
    </mxGraphModel>
  </diagram>
</mxfile>
